<mxfile host="app.diagrams.net" modified="2021-06-18T06:18:42.744Z" agent="5.0 (Windows NT 10.0; Win64; x64) AppleWebKit/537.36 (KHTML, like Gecko) Chrome/86.0.4240.198 Safari/537.36" etag="32Q9YB9FUkQLMFvt35X9" version="14.7.10" type="github">
  <diagram name="Page-1" id="2a216829-ef6e-dabb-86c1-c78162f3ba2b">
    <mxGraphModel dx="1955" dy="934" grid="1" gridSize="10" guides="1" tooltips="1" connect="1" arrows="1" fold="1" page="1" pageScale="1" pageWidth="850" pageHeight="1100" background="none" math="0" shadow="0">
      <root>
        <mxCell id="0" />
        <mxCell id="1" parent="0" />
        <mxCell id="88vDTYBA_JWGL3lznaFL-3" style="edgeStyle=orthogonalEdgeStyle;rounded=0;orthogonalLoop=1;jettySize=auto;html=1;entryX=0.5;entryY=0;entryDx=0;entryDy=0;" edge="1" parent="1" source="88vDTYBA_JWGL3lznaFL-1" target="88vDTYBA_JWGL3lznaFL-6">
          <mxGeometry relative="1" as="geometry">
            <mxPoint x="495" y="170" as="targetPoint" />
          </mxGeometry>
        </mxCell>
        <mxCell id="88vDTYBA_JWGL3lznaFL-4" style="edgeStyle=orthogonalEdgeStyle;rounded=0;orthogonalLoop=1;jettySize=auto;html=1;entryX=0.5;entryY=0;entryDx=0;entryDy=0;" edge="1" parent="1" source="88vDTYBA_JWGL3lznaFL-1" target="88vDTYBA_JWGL3lznaFL-7">
          <mxGeometry relative="1" as="geometry">
            <mxPoint x="555" y="170" as="targetPoint" />
          </mxGeometry>
        </mxCell>
        <mxCell id="88vDTYBA_JWGL3lznaFL-8" style="edgeStyle=orthogonalEdgeStyle;rounded=0;orthogonalLoop=1;jettySize=auto;html=1;entryX=0.415;entryY=-0.013;entryDx=0;entryDy=0;entryPerimeter=0;" edge="1" parent="1" source="88vDTYBA_JWGL3lznaFL-1" target="88vDTYBA_JWGL3lznaFL-5">
          <mxGeometry relative="1" as="geometry" />
        </mxCell>
        <mxCell id="88vDTYBA_JWGL3lznaFL-1" value="保存、确认提交" style="rounded=0;whiteSpace=wrap;html=1;" vertex="1" parent="1">
          <mxGeometry x="435" y="40" width="120" height="60" as="geometry" />
        </mxCell>
        <mxCell id="88vDTYBA_JWGL3lznaFL-13" style="edgeStyle=orthogonalEdgeStyle;rounded=0;orthogonalLoop=1;jettySize=auto;html=1;" edge="1" parent="1" source="88vDTYBA_JWGL3lznaFL-5" target="88vDTYBA_JWGL3lznaFL-10">
          <mxGeometry relative="1" as="geometry" />
        </mxCell>
        <mxCell id="88vDTYBA_JWGL3lznaFL-5" value="改革办" style="ellipse;whiteSpace=wrap;html=1;aspect=fixed;" vertex="1" parent="1">
          <mxGeometry x="265" y="180" width="80" height="80" as="geometry" />
        </mxCell>
        <mxCell id="88vDTYBA_JWGL3lznaFL-15" style="edgeStyle=orthogonalEdgeStyle;rounded=0;orthogonalLoop=1;jettySize=auto;html=1;entryX=0.5;entryY=0;entryDx=0;entryDy=0;" edge="1" parent="1" source="88vDTYBA_JWGL3lznaFL-6" target="88vDTYBA_JWGL3lznaFL-14">
          <mxGeometry relative="1" as="geometry" />
        </mxCell>
        <mxCell id="88vDTYBA_JWGL3lznaFL-6" value="牵头" style="ellipse;whiteSpace=wrap;html=1;aspect=fixed;" vertex="1" parent="1">
          <mxGeometry x="455" y="180" width="80" height="80" as="geometry" />
        </mxCell>
        <mxCell id="88vDTYBA_JWGL3lznaFL-20" style="edgeStyle=orthogonalEdgeStyle;rounded=0;orthogonalLoop=1;jettySize=auto;html=1;entryX=0.5;entryY=0;entryDx=0;entryDy=0;" edge="1" parent="1" source="88vDTYBA_JWGL3lznaFL-7" target="88vDTYBA_JWGL3lznaFL-19">
          <mxGeometry relative="1" as="geometry" />
        </mxCell>
        <mxCell id="88vDTYBA_JWGL3lznaFL-7" value="协同" style="ellipse;whiteSpace=wrap;html=1;aspect=fixed;" vertex="1" parent="1">
          <mxGeometry x="655" y="170" width="80" height="80" as="geometry" />
        </mxCell>
        <mxCell id="88vDTYBA_JWGL3lznaFL-10" value="target" style="swimlane;" vertex="1" parent="1">
          <mxGeometry x="50" y="300" width="237.5" height="200" as="geometry" />
        </mxCell>
        <mxCell id="88vDTYBA_JWGL3lznaFL-12" value="&lt;font style=&quot;font-size: 24px&quot;&gt;status=7&lt;br&gt;&lt;/font&gt;&lt;pre style=&quot;background-color: rgb(40 , 44 , 52) ; font-family: &amp;#34;jetbrains mono&amp;#34; , monospace&quot;&gt;&lt;pre style=&quot;font-family: &amp;#34;jetbrains mono&amp;#34; , monospace&quot;&gt;&lt;font style=&quot;font-size: 24px&quot;&gt;&lt;span style=&quot;color: rgb(97 , 175 , 239)&quot;&gt;tGgbStatus&lt;/span&gt;&lt;span style=&quot;color: rgb(209 , 154 , 102)&quot;&gt;(&lt;/span&gt;&lt;font color=&quot;#e5c07b&quot;&gt;1&lt;/font&gt;&lt;span style=&quot;color: rgb(209 , 154 , 102)&quot;&gt;)&lt;/span&gt;&lt;font color=&quot;#bbbbbb&quot;&gt;;&lt;br&gt;&lt;/font&gt;&lt;span style=&quot;color: rgb(97 , 175 , 239)&quot;&gt;tZbStatus&lt;/span&gt;&lt;span style=&quot;color: rgb(209 , 154 , 102)&quot;&gt;(&lt;/span&gt;&lt;font color=&quot;#e5c07b&quot;&gt;1&lt;/font&gt;&lt;span style=&quot;color: rgb(209 , 154 , 102)&quot;&gt;)&lt;/span&gt;&lt;font color=&quot;#bbbbbb&quot;&gt;;&lt;br&gt;&lt;/font&gt;&lt;span style=&quot;color: rgb(97 , 175 , 239)&quot;&gt;tQtdwStatus&lt;/span&gt;&lt;span style=&quot;color: rgb(209 , 154 , 102)&quot;&gt;(&lt;/span&gt;&lt;font color=&quot;#e5c07b&quot;&gt;1&lt;/font&gt;&lt;span style=&quot;color: rgb(209 , 154 , 102)&quot;&gt;)&lt;/span&gt;&lt;font color=&quot;#bbbbbb&quot;&gt;;&lt;/font&gt;&lt;/font&gt;&lt;/pre&gt;&lt;/pre&gt;" style="text;html=1;align=center;verticalAlign=middle;resizable=0;points=[];autosize=1;strokeColor=none;" vertex="1" parent="88vDTYBA_JWGL3lznaFL-10">
          <mxGeometry x="7.5" y="80" width="200" height="100" as="geometry" />
        </mxCell>
        <mxCell id="88vDTYBA_JWGL3lznaFL-11" value="前端只发送自己的 ，下级提交不管" style="text;html=1;strokeColor=none;fillColor=none;align=center;verticalAlign=middle;whiteSpace=wrap;rounded=0;" vertex="1" parent="1">
          <mxGeometry x="365" width="270" height="20" as="geometry" />
        </mxCell>
        <mxCell id="88vDTYBA_JWGL3lznaFL-14" value="target" style="swimlane;" vertex="1" parent="1">
          <mxGeometry x="387.5" y="300" width="225" height="200" as="geometry" />
        </mxCell>
        <mxCell id="88vDTYBA_JWGL3lznaFL-17" value="&lt;pre style=&quot;background-color: rgb(40 , 44 , 52) ; color: rgb(187 , 187 , 187) ; font-family: &amp;#34;jetbrains mono&amp;#34; , monospace&quot;&gt;&lt;span style=&quot;color: rgb(97 , 175 , 239)&quot;&gt;&lt;font style=&quot;font-size: 24px&quot;&gt;status=1&lt;/font&gt;&lt;/span&gt;&lt;/pre&gt;&lt;pre style=&quot;background-color: rgb(40 , 44 , 52) ; font-family: &amp;#34;jetbrains mono&amp;#34; , monospace&quot;&gt;&lt;font style=&quot;font-size: 24px&quot;&gt;&lt;span style=&quot;color: rgb(97 , 175 , 239)&quot;&gt;GgbStatus&lt;/span&gt;&lt;span style=&quot;color: rgb(209 , 154 , 102)&quot;&gt;(&lt;/span&gt;&lt;font color=&quot;#e5c07b&quot;&gt;2&lt;/font&gt;&lt;span style=&quot;color: rgb(209 , 154 , 102)&quot;&gt;)&lt;/span&gt;&lt;font color=&quot;#bbbbbb&quot;&gt;&lt;br&gt;&lt;/font&gt;&lt;span style=&quot;color: rgb(97 , 175 , 239)&quot;&gt;ZbStatus&lt;/span&gt;&lt;span style=&quot;color: rgb(209 , 154 , 102)&quot;&gt;(&lt;/span&gt;&lt;font color=&quot;#e5c07b&quot;&gt;1&lt;/font&gt;&lt;span style=&quot;color: rgb(209 , 154 , 102)&quot;&gt;)&lt;/span&gt;&lt;font color=&quot;#bbbbbb&quot;&gt;&lt;br&gt;&lt;/font&gt;&lt;span style=&quot;color: rgb(97 , 175 , 239)&quot;&gt;QtdwStatus&lt;/span&gt;&lt;span style=&quot;color: rgb(209 , 154 , 102)&quot;&gt;(&lt;/span&gt;&lt;font color=&quot;#e5c07b&quot;&gt;1&lt;/font&gt;&lt;span style=&quot;color: rgb(209 , 154 , 102)&quot;&gt;)&lt;/span&gt;&lt;/font&gt;&lt;/pre&gt;" style="text;html=1;align=center;verticalAlign=middle;resizable=0;points=[];autosize=1;strokeColor=none;" vertex="1" parent="88vDTYBA_JWGL3lznaFL-14">
          <mxGeometry x="20" y="70" width="170" height="120" as="geometry" />
        </mxCell>
        <mxCell id="88vDTYBA_JWGL3lznaFL-19" value="target" style="swimlane;startSize=23;" vertex="1" parent="1">
          <mxGeometry x="725" y="300" width="215" height="200" as="geometry" />
        </mxCell>
        <mxCell id="88vDTYBA_JWGL3lznaFL-21" value="&lt;pre style=&quot;background-color: rgb(40 , 44 , 52) ; color: rgb(187 , 187 , 187) ; font-family: &amp;#34;jetbrains mono&amp;#34; , monospace&quot;&gt;&lt;span style=&quot;color: rgb(97 , 175 , 239)&quot;&gt;&lt;font style=&quot;font-size: 24px&quot;&gt;status=0&lt;/font&gt;&lt;/span&gt;&lt;/pre&gt;&lt;pre style=&quot;background-color: rgb(40 , 44 , 52) ; font-family: &amp;#34;jetbrains mono&amp;#34; , monospace&quot;&gt;&lt;font style=&quot;font-size: 24px&quot;&gt;&lt;span style=&quot;color: rgb(97 , 175 , 239)&quot;&gt;GgbStatus&lt;/span&gt;&lt;span style=&quot;color: rgb(209 , 154 , 102)&quot;&gt;(&lt;/span&gt;&lt;font color=&quot;#e5c07b&quot;&gt;2&lt;/font&gt;&lt;span style=&quot;color: rgb(209 , 154 , 102)&quot;&gt;)&lt;/span&gt;&lt;font color=&quot;#bbbbbb&quot;&gt;;&lt;br&gt;&lt;/font&gt;&lt;span style=&quot;color: rgb(97 , 175 , 239)&quot;&gt;ZbStatus&lt;/span&gt;&lt;span style=&quot;color: rgb(209 , 154 , 102)&quot;&gt;(&lt;/span&gt;&lt;font color=&quot;#e5c07b&quot;&gt;2&lt;/font&gt;&lt;span style=&quot;color: rgb(209 , 154 , 102)&quot;&gt;)&lt;/span&gt;&lt;font color=&quot;#bbbbbb&quot;&gt;;&lt;br&gt;&lt;/font&gt;&lt;span style=&quot;color: rgb(97 , 175 , 239)&quot;&gt;QtdwStatus&lt;/span&gt;&lt;span style=&quot;color: rgb(209 , 154 , 102)&quot;&gt;(&lt;/span&gt;&lt;font color=&quot;#e5c07b&quot;&gt;2&lt;/font&gt;&lt;span style=&quot;color: rgb(209 , 154 , 102)&quot;&gt;)&lt;/span&gt;&lt;font color=&quot;#bbbbbb&quot;&gt;;&lt;/font&gt;&lt;/font&gt;&lt;/pre&gt;" style="text;html=1;align=center;verticalAlign=middle;resizable=0;points=[];autosize=1;strokeColor=none;" vertex="1" parent="88vDTYBA_JWGL3lznaFL-19">
          <mxGeometry x="5" y="65" width="180" height="120" as="geometry" />
        </mxCell>
        <mxCell id="88vDTYBA_JWGL3lznaFL-26" style="edgeStyle=orthogonalEdgeStyle;rounded=0;orthogonalLoop=1;jettySize=auto;html=1;entryX=0.5;entryY=0;entryDx=0;entryDy=0;" edge="1" parent="1" source="88vDTYBA_JWGL3lznaFL-22" target="88vDTYBA_JWGL3lznaFL-24">
          <mxGeometry relative="1" as="geometry" />
        </mxCell>
        <mxCell id="88vDTYBA_JWGL3lznaFL-27" style="edgeStyle=orthogonalEdgeStyle;rounded=0;orthogonalLoop=1;jettySize=auto;html=1;entryX=0.5;entryY=0;entryDx=0;entryDy=0;" edge="1" parent="1" source="88vDTYBA_JWGL3lznaFL-22" target="88vDTYBA_JWGL3lznaFL-23">
          <mxGeometry relative="1" as="geometry" />
        </mxCell>
        <mxCell id="88vDTYBA_JWGL3lznaFL-28" style="edgeStyle=orthogonalEdgeStyle;rounded=0;orthogonalLoop=1;jettySize=auto;html=1;entryX=0.5;entryY=0;entryDx=0;entryDy=0;" edge="1" parent="1" source="88vDTYBA_JWGL3lznaFL-22" target="88vDTYBA_JWGL3lznaFL-25">
          <mxGeometry relative="1" as="geometry">
            <mxPoint x="695" y="678" as="targetPoint" />
          </mxGeometry>
        </mxCell>
        <mxCell id="88vDTYBA_JWGL3lznaFL-22" value="提交分解、分解完成" style="rounded=0;whiteSpace=wrap;html=1;" vertex="1" parent="1">
          <mxGeometry x="435" y="570" width="120" height="60" as="geometry" />
        </mxCell>
        <mxCell id="88vDTYBA_JWGL3lznaFL-33" style="edgeStyle=orthogonalEdgeStyle;rounded=0;orthogonalLoop=1;jettySize=auto;html=1;" edge="1" parent="1" source="88vDTYBA_JWGL3lznaFL-23" target="88vDTYBA_JWGL3lznaFL-30">
          <mxGeometry relative="1" as="geometry" />
        </mxCell>
        <mxCell id="88vDTYBA_JWGL3lznaFL-23" value="改革办" style="ellipse;whiteSpace=wrap;html=1;aspect=fixed;" vertex="1" parent="1">
          <mxGeometry x="265" y="730" width="80" height="80" as="geometry" />
        </mxCell>
        <mxCell id="88vDTYBA_JWGL3lznaFL-34" style="edgeStyle=orthogonalEdgeStyle;rounded=0;orthogonalLoop=1;jettySize=auto;html=1;entryX=0.5;entryY=0;entryDx=0;entryDy=0;" edge="1" parent="1" source="88vDTYBA_JWGL3lznaFL-24" target="88vDTYBA_JWGL3lznaFL-31">
          <mxGeometry relative="1" as="geometry" />
        </mxCell>
        <mxCell id="88vDTYBA_JWGL3lznaFL-24" value="牵头" style="ellipse;whiteSpace=wrap;html=1;aspect=fixed;" vertex="1" parent="1">
          <mxGeometry x="455" y="730" width="80" height="80" as="geometry" />
        </mxCell>
        <mxCell id="88vDTYBA_JWGL3lznaFL-35" style="edgeStyle=orthogonalEdgeStyle;rounded=0;orthogonalLoop=1;jettySize=auto;html=1;entryX=0.5;entryY=0;entryDx=0;entryDy=0;" edge="1" parent="1" source="88vDTYBA_JWGL3lznaFL-25" target="88vDTYBA_JWGL3lznaFL-32">
          <mxGeometry relative="1" as="geometry" />
        </mxCell>
        <mxCell id="88vDTYBA_JWGL3lznaFL-25" value="协同" style="ellipse;whiteSpace=wrap;html=1;aspect=fixed;" vertex="1" parent="1">
          <mxGeometry x="655" y="730" width="80" height="80" as="geometry" />
        </mxCell>
        <mxCell id="88vDTYBA_JWGL3lznaFL-30" value="Vertical Container" style="swimlane;" vertex="1" parent="1">
          <mxGeometry x="50" y="860" width="200" height="200" as="geometry" />
        </mxCell>
        <mxCell id="88vDTYBA_JWGL3lznaFL-36" value="&lt;font style=&quot;font-size: 24px&quot;&gt;status=7&lt;/font&gt;" style="text;html=1;align=center;verticalAlign=middle;resizable=0;points=[];autosize=1;strokeColor=none;" vertex="1" parent="88vDTYBA_JWGL3lznaFL-30">
          <mxGeometry x="45" y="100" width="110" height="20" as="geometry" />
        </mxCell>
        <mxCell id="88vDTYBA_JWGL3lznaFL-31" value="Vertical Container" style="swimlane;" vertex="1" parent="1">
          <mxGeometry x="395" y="860" width="200" height="200" as="geometry" />
        </mxCell>
        <mxCell id="88vDTYBA_JWGL3lznaFL-37" value="&lt;font style=&quot;font-size: 24px&quot;&gt;status=3&lt;/font&gt;" style="text;html=1;strokeColor=none;fillColor=none;align=center;verticalAlign=middle;whiteSpace=wrap;rounded=0;" vertex="1" parent="88vDTYBA_JWGL3lznaFL-31">
          <mxGeometry x="80" y="100" width="40" height="20" as="geometry" />
        </mxCell>
        <mxCell id="88vDTYBA_JWGL3lznaFL-32" value="Vertical Container" style="swimlane;" vertex="1" parent="1">
          <mxGeometry x="725" y="860" width="200" height="200" as="geometry" />
        </mxCell>
        <mxCell id="88vDTYBA_JWGL3lznaFL-38" value="&lt;font style=&quot;font-size: 24px&quot;&gt;status=2&lt;/font&gt;" style="text;html=1;align=center;verticalAlign=middle;resizable=0;points=[];autosize=1;strokeColor=none;" vertex="1" parent="1">
          <mxGeometry x="785" y="960" width="110" height="20" as="geometry" />
        </mxCell>
        <mxCell id="88vDTYBA_JWGL3lznaFL-41" style="edgeStyle=orthogonalEdgeStyle;rounded=0;orthogonalLoop=1;jettySize=auto;html=1;entryX=0.5;entryY=0;entryDx=0;entryDy=0;" edge="1" parent="1" source="88vDTYBA_JWGL3lznaFL-40" target="88vDTYBA_JWGL3lznaFL-45">
          <mxGeometry relative="1" as="geometry">
            <mxPoint x="1410" y="170" as="targetPoint" />
          </mxGeometry>
        </mxCell>
        <mxCell id="88vDTYBA_JWGL3lznaFL-47" style="edgeStyle=orthogonalEdgeStyle;rounded=0;orthogonalLoop=1;jettySize=auto;html=1;entryX=0.5;entryY=0;entryDx=0;entryDy=0;" edge="1" parent="1" source="88vDTYBA_JWGL3lznaFL-40" target="88vDTYBA_JWGL3lznaFL-44">
          <mxGeometry relative="1" as="geometry" />
        </mxCell>
        <mxCell id="88vDTYBA_JWGL3lznaFL-40" value="退回" style="rounded=0;whiteSpace=wrap;html=1;" vertex="1" parent="1">
          <mxGeometry x="1350" y="50" width="120" height="60" as="geometry" />
        </mxCell>
        <mxCell id="88vDTYBA_JWGL3lznaFL-44" value="改革办" style="ellipse;whiteSpace=wrap;html=1;aspect=fixed;" vertex="1" parent="1">
          <mxGeometry x="1180" y="220" width="80" height="80" as="geometry" />
        </mxCell>
        <mxCell id="88vDTYBA_JWGL3lznaFL-45" value="牵头" style="ellipse;whiteSpace=wrap;html=1;aspect=fixed;" vertex="1" parent="1">
          <mxGeometry x="1520" y="220" width="80" height="80" as="geometry" />
        </mxCell>
        <mxCell id="88vDTYBA_JWGL3lznaFL-53" value="Vertical Container" style="swimlane;" vertex="1" parent="1">
          <mxGeometry x="1120" y="320" width="200" height="200" as="geometry" />
        </mxCell>
        <mxCell id="88vDTYBA_JWGL3lznaFL-55" value="&lt;font style=&quot;font-size: 24px&quot;&gt;sattus=5&lt;/font&gt;" style="text;html=1;strokeColor=none;fillColor=none;align=center;verticalAlign=middle;whiteSpace=wrap;rounded=0;" vertex="1" parent="88vDTYBA_JWGL3lznaFL-53">
          <mxGeometry x="80" y="120" width="40" height="20" as="geometry" />
        </mxCell>
        <mxCell id="88vDTYBA_JWGL3lznaFL-54" value="Vertical Container" style="swimlane;" vertex="1" parent="1">
          <mxGeometry x="1460" y="320" width="200" height="200" as="geometry" />
        </mxCell>
        <mxCell id="88vDTYBA_JWGL3lznaFL-56" value="&lt;font style=&quot;font-size: 24px&quot;&gt;status=4&lt;/font&gt;" style="text;html=1;align=center;verticalAlign=middle;resizable=0;points=[];autosize=1;strokeColor=none;" vertex="1" parent="1">
          <mxGeometry x="1510" y="430" width="110" height="20" as="geometry" />
        </mxCell>
        <mxCell id="88vDTYBA_JWGL3lznaFL-57" value="前端只发送下级被采纳的&amp;nbsp; &amp;nbsp; 和自己的" style="text;html=1;strokeColor=none;fillColor=none;align=center;verticalAlign=middle;whiteSpace=wrap;rounded=0;" vertex="1" parent="1">
          <mxGeometry x="350" y="540" width="305" height="20" as="geometry" />
        </mxCell>
        <mxCell id="88vDTYBA_JWGL3lznaFL-63" style="edgeStyle=orthogonalEdgeStyle;rounded=0;orthogonalLoop=1;jettySize=auto;html=1;entryX=0.5;entryY=0;entryDx=0;entryDy=0;" edge="1" parent="1" source="88vDTYBA_JWGL3lznaFL-58" target="88vDTYBA_JWGL3lznaFL-60">
          <mxGeometry relative="1" as="geometry" />
        </mxCell>
        <mxCell id="88vDTYBA_JWGL3lznaFL-64" style="edgeStyle=orthogonalEdgeStyle;rounded=0;orthogonalLoop=1;jettySize=auto;html=1;entryX=0.5;entryY=0;entryDx=0;entryDy=0;" edge="1" parent="1" source="88vDTYBA_JWGL3lznaFL-58" target="88vDTYBA_JWGL3lznaFL-61">
          <mxGeometry relative="1" as="geometry" />
        </mxCell>
        <mxCell id="88vDTYBA_JWGL3lznaFL-58" value="采纳" style="rounded=0;whiteSpace=wrap;html=1;" vertex="1" parent="1">
          <mxGeometry x="1340" y="620" width="120" height="60" as="geometry" />
        </mxCell>
        <mxCell id="88vDTYBA_JWGL3lznaFL-69" style="edgeStyle=orthogonalEdgeStyle;rounded=0;orthogonalLoop=1;jettySize=auto;html=1;entryX=0.5;entryY=0;entryDx=0;entryDy=0;" edge="1" parent="1" source="88vDTYBA_JWGL3lznaFL-60" target="88vDTYBA_JWGL3lznaFL-65">
          <mxGeometry relative="1" as="geometry" />
        </mxCell>
        <mxCell id="88vDTYBA_JWGL3lznaFL-60" value="牵头的措施" style="ellipse;whiteSpace=wrap;html=1;aspect=fixed;" vertex="1" parent="1">
          <mxGeometry x="1170" y="750" width="80" height="80" as="geometry" />
        </mxCell>
        <mxCell id="88vDTYBA_JWGL3lznaFL-67" style="edgeStyle=orthogonalEdgeStyle;rounded=0;orthogonalLoop=1;jettySize=auto;html=1;entryX=0.5;entryY=0;entryDx=0;entryDy=0;" edge="1" parent="1" source="88vDTYBA_JWGL3lznaFL-61" target="88vDTYBA_JWGL3lznaFL-68">
          <mxGeometry relative="1" as="geometry">
            <mxPoint x="1550" y="860" as="targetPoint" />
          </mxGeometry>
        </mxCell>
        <mxCell id="88vDTYBA_JWGL3lznaFL-61" value="协同的措施" style="ellipse;whiteSpace=wrap;html=1;aspect=fixed;" vertex="1" parent="1">
          <mxGeometry x="1510" y="750" width="80" height="80" as="geometry" />
        </mxCell>
        <mxCell id="88vDTYBA_JWGL3lznaFL-62" value="这里的用户类型是措施的人创建类型，而不是当前用户" style="text;html=1;strokeColor=none;fillColor=none;align=center;verticalAlign=middle;whiteSpace=wrap;rounded=0;" vertex="1" parent="1">
          <mxGeometry x="1279" y="590" width="252" height="20" as="geometry" />
        </mxCell>
        <mxCell id="88vDTYBA_JWGL3lznaFL-65" value="Vertical Container" style="swimlane;" vertex="1" parent="1">
          <mxGeometry x="1110" y="850" width="200" height="200" as="geometry" />
        </mxCell>
        <mxCell id="88vDTYBA_JWGL3lznaFL-66" value="&lt;pre style=&quot;background-color: rgb(40 , 44 , 52) ; color: rgb(187 , 187 , 187) ; font-family: &amp;#34;jetbrains mono&amp;#34; , monospace&quot;&gt;&lt;span style=&quot;color: rgb(97 , 175 , 239)&quot;&gt;&lt;font style=&quot;font-size: 24px&quot;&gt;GgbStatus=1&lt;/font&gt;&lt;/span&gt;&lt;/pre&gt;&lt;pre style=&quot;background-color: rgb(40 , 44 , 52) ; color: rgb(187 , 187 , 187) ; font-family: &amp;#34;jetbrains mono&amp;#34; , monospace&quot;&gt;&lt;span style=&quot;color: rgb(97 , 175 , 239)&quot;&gt;&lt;font style=&quot;font-size: 24px&quot;&gt;status=7&lt;/font&gt;&lt;/span&gt;&lt;/pre&gt;" style="text;html=1;align=center;verticalAlign=middle;resizable=0;points=[];autosize=1;strokeColor=none;" vertex="1" parent="1">
          <mxGeometry x="1135" y="910" width="150" height="80" as="geometry" />
        </mxCell>
        <mxCell id="88vDTYBA_JWGL3lznaFL-68" value="Vertical Container" style="swimlane;" vertex="1" parent="1">
          <mxGeometry x="1450" y="860" width="200" height="200" as="geometry" />
        </mxCell>
        <mxCell id="88vDTYBA_JWGL3lznaFL-70" value="&lt;pre style=&quot;background-color: rgb(40 , 44 , 52) ; color: rgb(187 , 187 , 187) ; font-family: &amp;#34;jetbrains mono&amp;#34; , monospace&quot;&gt;&lt;span style=&quot;color: rgb(97 , 175 , 239)&quot;&gt;&lt;font style=&quot;font-size: 24px&quot;&gt;ZbStatus=1&lt;/font&gt;&lt;/span&gt;&lt;/pre&gt;" style="text;html=1;align=center;verticalAlign=middle;resizable=0;points=[];autosize=1;strokeColor=none;" vertex="1" parent="1">
          <mxGeometry x="1480" y="915" width="140" height="50" as="geometry" />
        </mxCell>
      </root>
    </mxGraphModel>
  </diagram>
</mxfile>
